<svg width="41" height="50" viewBox="0 0 41 50" fill="none" xmlns="http://www.w3.org/2000/svg">
<path d="M27.8463 8.74512H4.60239C2.42135 8.74512 0.649902 10.5166 0.649902 12.6976V46.048C0.649902 48.229 2.42135 50.0005 4.60239 50.0005H27.8463C30.0273 50.0005 31.7988 48.229 31.7988 46.048V12.6976C31.7885 10.5166 30.0171 8.74512 27.8463 8.74512ZM29.0238 46.0377C29.0238 46.6931 28.4914 47.2255 27.836 47.2255H4.59215C3.93681 47.2255 3.40435 46.6931 3.40435 46.0377V12.6976C3.40435 12.0423 3.93681 11.5098 4.59215 11.5098H27.836C28.4914 11.5098 29.0238 12.0423 29.0238 12.6976V46.0377Z" fill="white"/>
<path d="M36.734 0H13.4901C11.309 0 9.5376 1.77145 9.5376 3.95248C9.5376 4.72045 10.152 5.33483 10.9199 5.33483C11.6879 5.33483 12.3023 4.72045 12.3023 3.95248C12.3023 3.29715 12.8347 2.76469 13.4901 2.76469H36.734C37.3893 2.76469 37.9218 3.29715 37.9218 3.95248V37.3029C37.9218 37.9582 37.3893 38.4906 36.734 38.4906C35.966 38.4906 35.3516 39.105 35.3516 39.873C35.3516 40.641 35.966 41.2553 36.734 41.2553C38.915 41.2553 40.6865 39.4839 40.6865 37.3029V3.95248C40.6865 1.77145 38.915 0 36.734 0Z" fill="white"/>
</svg>
