<svg width="10" height="10" viewBox="0 0 10 10" fill="none" xmlns="http://www.w3.org/2000/svg">
<path d="M0 5C0 4.82735 0.00874057 4.65675 0.0258034 4.48861C0.0428663 4.32048 0.0682514 4.15482 0.101541 3.99204C0.117466 3.91416 0.135201 3.83695 0.154698 3.76045C0.175957 3.67703 0.199312 3.59446 0.224704 3.51278C0.273384 3.35619 0.32955 3.20291 0.392783 3.05335C0.456017 2.90379 0.526319 2.75795 0.60327 2.61626C0.680222 2.47456 0.763823 2.33701 0.853656 2.20401C0.900438 2.13475 0.948909 2.06673 0.999012 2C1.04512 1.93859 1.09261 1.87828 1.14143 1.81912C1.24331 1.69566 1.351 1.57718 1.46409 1.46409C1.57718 1.351 1.69566 1.24331 1.81912 1.14143C1.94258 1.03955 2.07101 0.943489 2.20401 0.853656C2.27145 0.808104 2.34006 0.764155 2.40979 0.721863C2.47757 0.680749 2.54641 0.641202 2.61626 0.60327C2.75795 0.526319 2.90379 0.456017 3.05335 0.392783C3.20291 0.329549 3.35619 0.273384 3.51278 0.224704C3.66937 0.176024 3.82926 0.13483 3.99204 0.101541C4.0787 0.0838186 4.16617 0.0683365 4.2544 0.0551577C4.3319 0.0435815 4.40999 0.0337825 4.48861 0.0258034C4.65675 0.00874054 4.82735 0 5 0C5.17265 0 5.34325 0.00874054 5.51139 0.0258034C5.67952 0.0428663 5.84519 0.0682514 6.00796 0.101541C6.17074 0.13483 6.33063 0.176024 6.48722 0.224704C6.56094 0.247622 6.63393 0.272199 6.70614 0.298391C6.78731 0.327835 6.8675 0.359319 6.94665 0.392783C7.09621 0.456017 7.24205 0.526319 7.38374 0.60327C7.52544 0.680222 7.66299 0.763823 7.79599 0.853656C7.92899 0.943489 8.05742 1.03955 8.18088 1.14143C8.25287 1.20083 8.32316 1.26221 8.39167 1.32548C8.44067 1.37072 8.48876 1.41694 8.53591 1.46409C8.649 1.57718 8.75669 1.69566 8.85857 1.81912C8.96045 1.94258 9.05651 2.07101 9.14634 2.20401C9.23618 2.33701 9.31978 2.47456 9.39673 2.61626C9.43261 2.68233 9.46705 2.74931 9.5 2.81714C9.53771 2.89477 9.57347 2.97353 9.60722 3.05335C9.67045 3.20291 9.72662 3.35619 9.7753 3.51278C9.82398 3.66937 9.86517 3.82926 9.89846 3.99204C9.93175 4.15482 9.95713 4.32048 9.9742 4.48861C9.98305 4.57581 9.98966 4.66368 9.99397 4.75215C9.99797 4.83426 10 4.91689 10 5C10 5.17265 9.99126 5.34325 9.9742 5.51139C9.95713 5.67952 9.93175 5.84519 9.89846 6.00796C9.86517 6.17074 9.82398 6.33063 9.7753 6.48722C9.75068 6.5664 9.72415 6.64474 9.69576 6.72218C9.66801 6.79788 9.63848 6.87272 9.60722 6.94665C9.54398 7.09621 9.47368 7.24205 9.39673 7.38374C9.31978 7.52544 9.23618 7.66299 9.14634 7.79599C9.05651 7.92899 8.96045 8.05742 8.85857 8.18088C8.80828 8.24183 8.75657 8.30156 8.70349 8.36003C8.64905 8.42001 8.59317 8.47865 8.53591 8.53591C8.42282 8.649 8.30434 8.75669 8.18088 8.85857C8.05742 8.96045 7.92899 9.05651 7.79599 9.14634C7.66299 9.23618 7.52544 9.31978 7.38374 9.39673C7.31767 9.43261 7.25069 9.46705 7.18286 9.5C7.10523 9.53771 7.02647 9.57347 6.94665 9.60722C6.79709 9.67045 6.64381 9.72662 6.48722 9.7753C6.33063 9.82398 6.17074 9.86517 6.00796 9.89846C5.84519 9.93175 5.67952 9.95713 5.51139 9.9742C5.42349 9.98312 5.33493 9.98976 5.24574 9.99407C5.16433 9.99801 5.0824 10 5 10C4.82735 10 4.65675 9.99126 4.48861 9.9742C4.32048 9.95713 4.15482 9.93175 3.99204 9.89846C3.82926 9.86517 3.66937 9.82398 3.51278 9.7753C3.43938 9.75248 3.3667 9.72801 3.2948 9.70195C3.21331 9.67241 3.1328 9.64081 3.05335 9.60722C2.90379 9.54398 2.75795 9.47368 2.61626 9.39673C2.47456 9.31978 2.33701 9.23618 2.20401 9.14634C2.07101 9.05651 1.94258 8.96045 1.81912 8.85857C1.75318 8.80416 1.68866 8.74809 1.62563 8.69043C1.57064 8.64012 1.51678 8.5886 1.46409 8.53591C1.351 8.42282 1.24331 8.30434 1.14143 8.18088C1.03955 8.05742 0.943489 7.92899 0.853656 7.79599C0.763823 7.66299 0.680222 7.52544 0.60327 7.38374C0.567387 7.31767 0.532949 7.25069 0.5 7.18286C0.46229 7.10523 0.42653 7.02647 0.392783 6.94665C0.32955 6.79709 0.273384 6.64381 0.224704 6.48722C0.176024 6.33063 0.13483 6.17074 0.101541 6.00796C0.0682514 5.84519 0.0428663 5.67952 0.0258034 5.51139C0.0182514 5.43697 0.0123297 5.36207 0.00807455 5.28673C0.00271566 5.19184 0 5.09624 0 5Z" fill="white"/>
</svg>
